<svg xmlns="http://www.w3.org/2000/svg" height="71.21" viewBox="0 0 128.81 71.21" width="128.81"><link xmlns="" type="text/css" rel="stylesheet" id="dark-mode-custom-link"/><link xmlns="" type="text/css" rel="stylesheet" id="dark-mode-general-link"/><style xmlns="" lang="en" type="text/css" id="dark-mode-custom-style"/><style xmlns="" lang="en" type="text/css" id="dark-mode-native-style"/><path d="m59.11 9.8a1.08 1.08 0 0 1 1.1-.6l19.6 1.2a1.11 1.11 0 0 1 1.1 1.3 1.11 1.11 0 0 1 -1.3 1.1l-19.61-1.2a1.11 1.11 0 0 1 -1.1-1.3 1.69 1.69 0 0 1 .21-.5z" fill="#ff6b00"/><path d="m69.51.6a1.15 1.15 0 0 1 1.1-.6 1.11 1.11 0 0 1 1.1 1.3l-1.2 19.6a1.11 1.11 0 0 1 -1.3 1.1 1.16 1.16 0 0 1 -1.1-1.3l1.2-19.6a1.69 1.69 0 0 1 .2-.5z" fill="#ff6b00"/><g fill="#ffe1cc"><path d="m17 60.7a1.24 1.24 0 0 0 -1.1 1.4l1.1 8a1.26 1.26 0 0 0 2.5-.3l-1.1-8a1.32 1.32 0 0 0 -1.4-1.1z"/><path d="m14.11 38.9a1.24 1.24 0 0 0 -1.11 1.4l1.1 8.4a1.26 1.26 0 0 0 2.5-.3l-1.09-8.4a1.24 1.24 0 0 0 -1.4-1.1z"/><path d="m31.11 52-8.9 1a1.26 1.26 0 0 0 .3 2.5l8.8-1.1a1.24 1.24 0 0 0 1.1-1.4 1.15 1.15 0 0 0 -1.3-1z"/><path d="m9.51 54.6-8.4 1a1.26 1.26 0 1 0 .3 2.5l8.4-1a1.26 1.26 0 1 0 -.3-2.5z"/><path d="m25.31 41.9a1 1 0 0 0 -.8.5l-5.2 6.7a1.21 1.21 0 1 0 1.9 1.5l5.2-6.7a1.25 1.25 0 0 0 -.2-1.7 1.61 1.61 0 0 0 -.9-.3z"/><path d="m11.81 59.3a1 1 0 0 0 -.8.5l-5.01 6.3a1.21 1.21 0 0 0 1.9 1.5l4.9-6.4a1.25 1.25 0 0 0 -.2-1.7 1.88 1.88 0 0 0 -.79-.2z"/><path d="m4.11 44.5a1 1 0 0 0 -.8.5 1.25 1.25 0 0 0 .2 1.7l6.7 5.2a1.21 1.21 0 1 0 1.5-1.9l-6.71-5.2a1.61 1.61 0 0 0 -.89-.3z"/><path d="m21.31 57.9a1 1 0 0 0 -.8.5 1.25 1.25 0 0 0 .2 1.7l6.7 5.2a1.21 1.21 0 0 0 1.5-1.9l-6.7-5.2a.81.81 0 0 0 -.9-.3z"/><path d="m120.91 12a.73.73 0 0 0 .7-.6l.4-4a.65.65 0 0 0 -1.3-.1l-.4 4a.67.67 0 0 0 .6.7z"/><path d="m119.91 23a.73.73 0 0 0 .7-.6l.4-4.2a.65.65 0 1 0 -1.3-.1l-.4 4.2c.1.4.3.7.6.7z"/><path d="m113.11 14.8 4.4.4a.73.73 0 0 0 .7-.6.73.73 0 0 0 -.6-.7l-4.4-.4a.73.73 0 0 0 -.7.6.67.67 0 0 0 .6.7z"/><path d="m123.91 15.8 4.2.4a.65.65 0 0 0 .1-1.3l-4.2-.4a.73.73 0 0 0 -.7.6.67.67 0 0 0 .6.7z"/><path d="m114.81 20.3c.2 0 .3 0 .4-.1l3.3-2.7a.64.64 0 0 0 -.8-1l-3.3 2.7a.63.63 0 0 0 -.1.9 1.69 1.69 0 0 0 .5.2z"/><path d="m123.31 13.2c.2 0 .3 0 .4-.1l3.1-2.6a.64.64 0 0 0 -.8-1l-3.1 2.6a.63.63 0 0 0 -.1.9.65.65 0 0 0 .5.2z"/><path d="m125.51 21.3c.2 0 .3 0 .4-.1a.63.63 0 0 0 .1-.9l-2.7-3.3a.64.64 0 1 0 -1 .8l2.7 3.3a.76.76 0 0 0 .5.2z"/><path d="m118.51 13c.2 0 .3 0 .4-.1a.63.63 0 0 0 .1-.9l-2.7-3.3a.64.64 0 0 0 -1 .8l2.7 3.3c.2.1.3.1.5.2z"/></g></svg>
