<svg xmlns="http://www.w3.org/2000/svg" height="48.02" viewBox="0 0 65.97 48.02" width="65.97"><link xmlns="" type="text/css" rel="stylesheet" id="dark-mode-custom-link"/><link xmlns="" type="text/css" rel="stylesheet" id="dark-mode-general-link"/><style xmlns="" lang="en" type="text/css" id="dark-mode-custom-style"/><style xmlns="" lang="en" type="text/css" id="dark-mode-native-style"/><g fill="#ff6b00"><path d="m49.1 15.92a1.08 1.08 0 0 0 -1.4-.2l-5.3 3.9a1 1 0 0 0 1.2 1.6l5.3-3.9a1.06 1.06 0 0 0 .2-1.4z"/><path d="m63.6 5.32a1.08 1.08 0 0 0 -1.4-.2l-5.6 4.1a1.08 1.08 0 0 0 -.2 1.4 1.08 1.08 0 0 0 1.4.2l5.6-4.1a1.08 1.08 0 0 0 .2-1.4z"/><path d="m60.9 22.42-4.3-5.8a1 1 0 0 0 -1.6 1.2l4.3 5.8a1.08 1.08 0 0 0 1.4.2.9.9 0 0 0 .2-1.4z"/><path d="m50.5 8.22-4.1-5.6a1.08 1.08 0 0 0 -1.4-.2 1.08 1.08 0 0 0 -.2 1.4l4.1 5.6a1.08 1.08 0 0 0 1.4.2 1.06 1.06 0 0 0 .2-1.4z"/><path d="m65.8 14.42a1 1 0 0 0 -.7-.4l-6.8-1a.89.89 0 0 0 -1.1.8.94.94 0 0 0 .8 1.1l6.8 1a.94.94 0 0 0 1.1-.8.62.62 0 0 0 -.1-.7z"/><path d="m48 11.72a1 1 0 0 0 -.7-.4l-6.5-1a.89.89 0 0 0 -1.1.8.94.94 0 0 0 .8 1.1l6.5 1a.89.89 0 0 0 1.1-.8.62.62 0 0 0 -.1-.7z"/><path d="m55.5.42a1 1 0 0 0 -.7-.4.89.89 0 0 0 -1.1.8l-1 6.8a.89.89 0 0 0 .8 1.1.82.82 0 0 0 1.1-.72l1-6.8a.75.75 0 0 0 -.1-.78z"/><path d="m52.8 17.92a1 1 0 0 0 -.7-.4.94.94 0 0 0 -1.1.8l-1 6.8a1 1 0 0 0 1.9.3l1-6.8a.48.48 0 0 0 -.1-.7z"/><path d="m12.4 43c.1-.1.1-.3.2-.4a1.09 1.09 0 0 0 -.4-.9l-9.3-6.9a.92.92 0 0 0 -1-.1 1 1 0 0 0 -.6.8l-1.3 11.42a1.09 1.09 0 0 0 .4.9.92.92 0 0 0 1 .1l10.6-4.6c.2 0 .3-.2.4-.32zm-9.3-5.7 6.5 4.9-7.5 3.2z"/></g></svg>
