<svg xmlns="http://www.w3.org/2000/svg" height="1129.14" viewBox="0 0 1374.41 1129.14" width="1374.41"><link xmlns="" type="text/css" rel="stylesheet" id="dark-mode-custom-link"/><link xmlns="" type="text/css" rel="stylesheet" id="dark-mode-general-link"/><style xmlns="" lang="en" type="text/css" id="dark-mode-custom-style"/><style xmlns="" lang="en" type="text/css" id="dark-mode-native-style"/><g fill="#ffe1cc"><path d="m908.21 35.54-97.15-26.65-19.36-5.3a124.6 124.6 0 0 1 20-3.59l1.62.44 77.35 21.23a169.86 169.86 0 0 1 17.54 13.87z"/><path d="m934.1 63.13-128.27-35.19-45.83-12.57q6.45-3.12 12.71-5.59l35.43 9.7 115.79 31.76q5.18 5.76 10.17 11.89z"/><path d="m952.9 88.77-152.31-41.77-65-17.84c3.47-2.22 6.9-4.32 10.28-6.26l57.06 15.65 142.2 39q3.95 5.47 7.77 11.21z"/><path d="m968.4 113.48-173-47.48-80.8-22.09c3-2.32 6-4.51 9-6.64l74.12 20.34 164.12 45q3.31 5.37 6.56 10.87z"/><path d="m981.87 137.69-1.18-.32-190.54-52.26-94.32-25.87c1.21-1.09 2.46-2.15 3.71-3.22 1.47-1.24 2.93-2.44 4.39-3.64l88.53 24.28 183.62 50.34c1.92 3.54 3.92 7.1 5.79 10.69z"/><path d="m994 161.48-18.56-5.09-190.52-52.23-106-29.07c2.37-2.4 4.8-4.78 7.27-7.09l101 27.71 190.56 52.29 11 3q2.65 5.24 5.25 10.5z"/><path d="m1005.29 185.11-35-9.62-190.59-52.26-116.05-31.83q3.24-3.69 6.58-7.28l111.77 30.66 190.54 52.22 27.84 7.65c1.68 3.45 3.29 6.93 4.91 10.42z"/><path d="m1015.92 208.48-50.91-14-190.54-52.2-124.81-34.28q3-3.75 6.08-7.41l121 33.2 190.54 52.26 44 12.06q2.34 5.16 4.64 10.33z"/><path d="m1026.12 231.78-66.32-18.19-190.56-52.26-132.51-36.33c1.83-2.54 3.72-5.07 5.61-7.55l129.21 35.44 190.56 52.27 59.52 16.33c1.5 3.42 3 6.87 4.49 10.3z"/><path d="m1036.05 255-81.49-22.35-190.56-52.27-139.41-38.24q2.61-3.85 5.29-7.63l136.46 37.42 190.54 52.27 74.79 20.5c1.46 3.45 2.93 6.88 4.38 10.3z"/><path d="m1045.9 278.2-96.57-26.49-190.54-52.23-145.71-40q2.48-3.85 5-7.71l143 39.22 190.54 52.26 89.89 24.66z"/><path d="m1055.82 301.41-111.72-30.65-190.54-52.28-151.49-41.48c1.59-2.6 3.21-5.17 4.84-7.77l149 40.87 190.54 52.26 105 28.81z"/><path d="m1066 324.69-127.15-34.88-190.52-52.26-156.9-43c1.54-2.6 3.11-5.2 4.68-7.8l154.54 42.39 190.55 52.26 120.27 33q2.29 5.19 4.53 10.29z"/><path d="m1076.83 348.14-143.18-39.28-190.53-52.26-162.12-44.47c1.53-2.6 3.06-5.23 4.61-7.83l159.83 43.85 190.56 52.26 136 37.3c1.56 3.54 3.2 7.01 4.83 10.43z"/><path d="m1088.64 371.88-160.22-43.95-190.54-52.28-167.18-45.86c1.3-2.29 2.62-4.57 3.91-6.79.22-.35.41-.7.62-1l165 45.25 190.51 52.23 152.49 41.83q2.7 5.43 5.41 10.57z"/><path d="m1102.34 396.11-179.13-49.11-190.56-52.28-171.83-47.13q2.17-4 4.36-7.9l169.82 46.58 190.56 52.26 170.44 46.75c2.06 3.75 4.2 7.37 6.34 10.83z"/><path d="m1120.59 421.6-12.07-3.3-190.52-52.3-190.56-52.23-176.56-48.43q2.26-3.94 4.45-7.87l174.42 47.85 190.54 52.26 190.54 52.27.75.19c3 4.18 6 8 9 11.56z"/><path d="m1146.48 449.19-43.18-11.84-190.56-52.27-190.53-52.26-181.79-49.82c1.6-2.58 3.19-5.18 4.74-7.78l179.36 49.19 190.54 52.26 190.56 52.27 28.85 7.91c3.8 4 7.82 8.13 12 12.38z"/><path d="m1175 477.48-77-21.1-190.47-52.25-190.53-52.26-188.09-51.6q2.69-3.75 5.29-7.63l185.12 50.78 190.53 52.26 190.54 52.32 61.84 17q6.24 6.1 12.77 12.48z"/><path d="m1204 506-111.16-30.48-190.54-52.32-190.56-52.26-190.54-52.27-5.76-1.58c2.16-2.39 4.22-4.84 6.25-7.37l1.83.5 190.54 52.26 190.56 52.26 190.53 52.26 96.06 26.34q6.32 6.21 12.79 12.61z"/><path d="m1231.92 534.09-144.29-39.61-190.56-52.23-190.54-52.25-190.53-52.28-17.09-4.72c2.7-2.17 5.32-4.49 7.87-6.93l11.54 3.17 190.55 52.27 190.54 52.29 190.59 52.27 129.81 35.6c3.98 4.1 8.04 8.21 12.11 12.42z"/><path d="m1258.15 561.77-175.76-48.2-190.56-52.27-190.53-52.3-190.54-52.23-34.76-9.52a97.67 97.67 0 0 0 10.44-5.46c.29-.17.59-.35.86-.54l25.76 7.07 190.54 52.27 190.54 52.26 190.56 52.27 162.1 44.46c3.79 4 7.59 8.09 11.35 12.19z"/><path d="m1282.06 588.82-14.36-3.94-190.54-52.26-190.54-52.27-190.56-52.26-190.53-52.27-67.93-18.63a148.54 148.54 0 0 0 20.07-3.58l50.15 13.76 190.54 52.27 190.56 52.26 190.54 52.27 190.54 52.31 1.69.48c3.54 3.86 7 7.85 10.37 11.86z"/><path d="m1303.41 615.18-40.92-11.18-190.56-52.27-190.54-52.31-190.54-52.26-190.56-52.27-132.93-36.41c10.8-.32 22 0 33.44.09l101.81 27.91 190.56 52.27 190.54 52.25 190.53 52.27 190.56 52.2 29.46 8.09q4.66 5.78 9.15 11.62z"/><path d="m1322 640.74-64.71-17.74-190.53-52.26-190.6-52.26-190.54-52.27-190.54-52.27-182.21-50q10.9-1.86 21.87-3.08l162.66 44.62 190.53 52.27 190.54 52.25 190.53 52.29 190.54 52.26 54.55 14.93q4 5.63 7.91 11.26z"/><path d="m1337.74 665.56-85.74-23.51-190.54-52.26-190.52-52.31-190.55-52.23-190.54-52.25-190.56-52.28-27.19-7.45c5.6-1.65 11.23-3.12 16.88-4.45l12.62 3.46 190.54 52.26 190.56 52.27 190.56 52.26 190.54 52.27 190.54 52.26 76.75 21c2.29 3.68 4.52 7.33 6.65 11z"/><path d="m1350.64 689.57-103.83-28.47-190.56-52.27-190.54-52.26-190.54-52.26-190.55-52.31-190.54-52.22-54.85-15c4.59-1.87 9.17-3.65 13.8-5.3l43.34 11.9 190.54 52.26 190.56 52.27 190.53 52.21 190.54 52.27 190.56 52.26 96.14 26.35c1.9 3.52 3.69 7 5.4 10.55z"/><path d="m1360.72 712.85-119.14-32.68-190.58-52.26-190.52-52.27-190.54-52.26-190.56-52.27-190.54-52.26-77.19-21.19c3.87-2.05 7.78-4 11.68-5.88l67.83 18.62 190.54 52.26 190.56 52.27 190.54 52.26 190.55 52.29 190.54 52.26 112.7 30.91q2.21 5.08 4.13 10.2z"/><path d="m1368 735.33-131.66-36.11-190.53-52.22-190.54-52.31-190.56-52.27-190.54-52.26-190.56-52.27-95.74-26.27q5-3.27 10.13-6.29l87.93 24.15 190.56 52.26 190.51 52.26 190.56 52.26 190.56 52.24 190.54 52.26 126.45 34.74c1.05 3.26 2 6.56 2.89 9.85z"/><path d="m1372.55 757.05-141.42-38.78-190.56-52.27-190.57-52.26-190.52-52.26-190.54-52.27-190.54-52.21-111.4-30.62c1-.81 2.11-1.62 3.17-2.41 1.92-1.43 3.85-2.83 5.78-4.22l104.77 28.73 190.53 52.26 190.54 52.26 190.56 52.26 190.54 52.27 190.56 52.26 137.41 37.68c.65 3.23 1.2 6.4 1.69 9.57z"/><path d="m1374.41 778.06-148.51-40.74-190.56-52.27-190.54-52.26-190.54-52.26-190.55-52.27-190.54-52.26-125-34.28q4-3.5 8.09-6.86l119.2 32.69 190.54 52.26 190.58 52.27 190.54 52.26 190.56 52.27 190.54 52.26 145.67 40c.26 3 .43 6.1.52 9.19z"/><path d="m1373.66 798.34-153-42-190.54-52.27-190.55-52.21-190.57-52.27-190.51-52.26-190.56-52.33-136.8-37.56c2.41-2.38 4.87-4.73 7.35-7.06l131.77 36.15 190.56 52.26 190.54 52.29 190.54 52.26 190.55 52.27 190.56 52.33 151.3 41.54c-.12 2.94-.3 5.89-.64 8.86z"/><path d="m1372.14 809.33c-.5 2.87-1.08 5.75-1.77 8.6l-154.94-42.45-190.53-52.31-190.54-52.26-190.56-52.27-190.54-52.26-190.54-52.26-147.18-40.37q3.33-3.66 6.75-7.24l142.71 39.16 190.54 52.26 190.53 52.27 190.6 52.28 190.54 52.27 190.54 52.25z"/><path d="m1367.5 828.54c-.86 2.77-1.8 5.54-2.86 8.31l-154.42-42.37-190.56-52.27-190.54-52.21-190.53-52.3-190.59-52.22-190.51-52.32-156.14-42.83c2-2.5 4.05-5 6.13-7.4l152.33 41.79 190.53 52.28 190.56 52.25 190.54 52.23 190.56 52.3 190.56 52.22z"/><path d="m1360.43 847.1c-1.2 2.68-2.5 5.35-3.88 8l-151.55-41.56-190.54-52.27-190.57-52.27-190.54-52.26-190.54-52.26-190.55-52.27-163.94-45c1.85-2.53 3.72-5 5.63-7.53l160.62 44 190.56 52.26 190.54 52.27 190.54 52.26 190.56 52.27 190.54 52.26z"/><path d="m1351 865q-2.31 3.87-4.91 7.74l-146.35-40.14-190.54-52.26-190.52-52.26-190.56-52.29-190.54-52.26-190.58-52.27-170.59-46.78c1.69-2.57 3.41-5.14 5.16-7.66l167.77 46 190.56 52.26 190.54 52.27 190.56 52.28 190.54 52.27 190.54 52.26z"/><path d="m1339.34 882.3c-1.87 2.49-3.83 5-5.88 7.47l-138.92-38.11-190.54-52.27-190.55-52.26-190.54-52.27-190.56-52.26-190.54-52.27-176.29-48.33c1.53-2.62 3.09-5.2 4.7-7.78l173.91 47.7 190.54 52.26 190.55 52.27 190.54 52.26 190.54 52.29 190.56 52.26z"/><path d="m1325.47 899c-2.19 2.41-4.46 4.8-6.83 7.2l-129.33-35.47-190.54-52.25-190.56-52.3-190.53-52.27-190.56-52.26-190.54-52.27-181-49.66q2.12-4 4.3-7.9l179 49.12 190.53 52.26 190.59 52.28 190.54 52.26 190.56 52.26 190.54 52.26z"/><path d="m1309.47 915.07c-2.5 2.33-5.1 4.65-7.75 7l-117.64-32.27-190.54-52.32-190.54-52.25-190.56-52.23-190.54-52.3-190.55-52.22-184.84-50.7c1.28-2.67 2.58-5.34 3.92-8l183.23 50.27 190.56 52.26 190.54 52.17 190.56 52.3 190.54 52.27 190.54 52.26z"/><path d="m1291.38 930.62q-4.2 3.35-8.65 6.7l-103.86-28.49-190.56-52.29-190.54-52.26-190.56-52.28-190.54-52.25-190.54-52.27-187.79-51.48c1.13-2.73 2.31-5.43 3.52-8.13l186.59 51.13 190.55 52.3 190.54 52.27 190.56 52.26 190.54 52.27 190.55 52.28z"/><path d="m1271.3 945.58c-3.16 2.2-6.36 4.34-9.59 6.45l-88.08-24.15-190.55-52.27-190.54-52.26-190.54-52.27-190.56-52.26-190.54-52.27-189.9-52.07q1.55-4.11 3.18-8.2l189.09 51.86 190.54 52.26 190.55 52.27 190.54 52.26 190.54 52.26 190.56 52.29z"/><path d="m1249.15 960c-3.44 2.12-6.87 4.19-10.34 6.24l-70.39-19.3-190.54-52.28-190.58-52.26-190.53-52.27-190.54-52.26-190.56-52.27-190.54-52.26-.73-.19q1.35-4.18 2.82-8.32l.23.06 190.55 52.27 190.55 52.26 190.54 52.27 190.54 52.31 190.56 52.27 190.53 52.26z"/><path d="m1225.52 974-10.67 6.16-51.66-14.16-190.54-52.29-190.56-52.23-190.56-52.3-190.53-52.26-190.54-52.27-190.56-52.26-1.28-.39c.79-2.82 1.61-5.62 2.45-8.42l1.14.32 190.56 52.27 190.54 52.27 190.54 52.26 190.56 52.3 190.59 52.26 190.54 52.27z"/><path d="m1202 988-10 6.34-34-9.34-190.6-52.24-190.54-52.28-190.54-52.25-190.56-52.23-190.54-52.3-190.55-52.22-1.07-.29c.67-2.83 1.38-5.68 2.12-8.51l1.28.32 190.54 52.3 190.54 52.18 190.56 52.27 190.54 52.25 190.54 52.26 190.55 52.27z"/><path d="m1179.35 1002.32c-3.53 2.1-7 4.18-10.51 6.19l-16.12-4.41-190.54-52.27-190.55-52.26-190.54-52.27-190.54-52.3-190.55-52.23-190.55-52.29h-.11c.57-2.87 1.17-5.73 1.78-8.6l.65.18 190.54 52.26 190.56 52.27 190.53 52.26 190.54 52.27 190.56 52.27 190.5 52.26z"/><path d="m1155.4 1016.23c-3.69 2.08-7.34 4.09-11 6.09l-187.4-51.44-190.59-52.26-190.55-52.27-190.54-52.26-190.56-52.27-188.9-51.82q.69-4.34 1.44-8.67l189.78 52 190.55 52.27 190.54 52.26 190.56 52.27 190.54 52.35 190.54 52.27z"/><path d="m1130.2 1029.81c-4 2-7.89 4-11.8 5.85l-166.68-45.73-190.54-52.26-190.56-52.27-190.53-52.26-190.54-52.27-186.39-51.12q.5-4.39 1.1-8.77l187.6 51.5 190.54 52.21 190.6 52.31 190.5 52.26 190.5 52.22z"/><path d="m1102.81 1042.77q-6.66 2.89-13.24 5.44l-143-39.23-190.57-52.26-190.59-52.24-190.56-52.29-190.54-52.27-183.06-50.2c.23-3 .46-5.92.75-8.89l184.63 50.65 190.54 52.26 190.56 52.26 190.54 52.26 190.56 52.27z"/><path d="m1071.34 1054.64c-5.42 1.73-10.82 3.28-16.24 4.64l-113.82-31.23-190.56-52.26-190.54-52.31-190.54-52.22-190.56-52.26-178.89-49.07c.08-3 .2-6 .38-9l180.83 49.61 190.6 52.27 190.53 52.26 190.47 52.27 190.56 52.26z"/><path d="m1030.88 1064a217.69 217.69 0 0 1 -25.37 2.11l-69.43-19-190.58-52.27-190.5-52.27-190.59-52.26-190.54-52.31-173.87-47.65v-9.09l176.23 48.34 190.54 52.26 190.54 52.26 190.56 52.27 190.54 52.26z"/><path d="m922.33 1054.75a375.94 375.94 0 0 0 -55.78-6.24h-.06l-126.22-34.62-190.54-52.27-190.55-52.26-190.54-52.27-168-46.09c-.19-3-.34-6.12-.43-9.19l170.79 46.83 190.54 52.27 190.56 52.26 190.49 52.31z"/><path d="m826.43 1048.92q-12.84.69-25.66 2l-65.73-18-190.54-52.25-190.5-52.26-190.6-52.27-161-44.14q-.53-4.65-.89-9.33l164.24 45.05 190.56 52.28 190.54 52.26 190.51 52.26z"/><path d="m772.45 1054.63q-10.28 1.55-20.6 3.41l-22-6-190.56-52.27-190.56-52.29-190.54-52.29-153.07-42c-.51-3.13-1-6.3-1.38-9.46l156.77 43 190.54 52.27 190.53 52.26 190.56 52.27z"/><path d="m727.56 1062.79c-6.16 1.28-12.3 2.62-18.47 4l-175-48-190.59-52.26-190.5-52.27-143.94-39.47c-.69-3.17-1.31-6.38-1.9-9.6l148.11 40.62 190.54 52.27 190.56 52.26 190.54 52.27z"/><path d="m686.63 1072c-5.81 1.4-11.64 2.85-17.5 4.29l-140.31-38.49-190.55-52.22-190.54-52.27-133.37-36.58q-1.36-4.86-2.53-9.73l138.17 37.86 190.56 52.27 190.54 52.26z"/><path d="m647.49 1081.79-17.13 4.39-106.77-29.29-190.54-52.26-190.56-52.27-121.24-33.26q-1.71-4.94-3.29-10l126.85 34.78 190.56 52.27 190.54 52.33z"/><path d="m608.79 1091.67c-5.74 1.46-11.48 2.9-17.26 4.35l-73.15-20.08-190.56-52.26-190.54-52.27-107.22-29.41c-1.46-3.37-2.84-6.79-4.17-10.23l113.71 31.23 190.54 52.27 190.54 52.25z"/><path d="m569.43 1101.38q-9 2.11-18 4.11l-38.19-10.49-190.56-52.26-190.63-52.26-90.75-24.88q-2.79-5.2-5.3-10.54l98.38 27 190.53 52.27 190.56 52.26z"/><path d="m527.89 1110.48q-9.72 2-19.48 3.73l-.48-.13-190.54-52.26-190.55-52.27-71.15-19.55q-3.49-5.35-6.8-11l80.26 22 190.56 52.27 190.54 52.26z"/><path d="m482.76 1118.57q-10.77 1.7-21.57 3.15l-149-40.87-190.59-52.27-47.31-13q-4.56-5.6-8.91-11.52l58.54 16.05 190.54 52.27z"/><path d="m432.11 1125.15c-8.39.89-16.79 1.62-25.12 2.19l-99.99-27.44-190.54-52.27-16.46-4.51q-6.41-6-12.48-12.49l31.29 8.57 190.44 52.28z"/><path d="m371.35 1129c-11.35.24-22.62.2-33.78-.19l-35.87-9.81-161-44.18q-10.84-6.9-21.06-14.85l184.36 50.51z"/><path d="m275.38 1123.15c-31-4.77-60.7-12.65-88.48-24.27z"/></g></svg>
